PathFileType	4	(X/Y/Z)	Run_400 01
DataRate	CameraRate	NumFrames	NumMarkers	Units	OrigDataRate	OrigDataStartFrame	OrigNumFrames
120	120	4	41	mm	120	38	125
Frame#	Time	LASI			RASI			LPSI			RPSI			RTH1			RTH3			LTH1			LTH2			LTH3			RTB1			RTB2			RTB3			LTB1			LTB2			LTB3			RCAL			RTOE			RMT5			LCAL			LTOE			LMT5			LACR			RACR			CLAV			C7			RUA1			RUA2			RUA3			RLEL			RMEL			LUA1			LUA2			LUA3			LLEL			LMEL			RFAsuperior			RFAradius			RFAulna			LFAsuperior			LFAradius			LFAulna			
		X1	Y1	Z1	X2	Y2	Z2	X3	Y3	Z3	X4	Y4	Z4	X5	Y5	Z5	X6	Y6	Z6	X7	Y7	Z7	X8	Y8	Z8	X9	Y9	Z9	X10	Y10	Z10	X11	Y11	Z11	X12	Y12	Z12	X13	Y13	Z13	X14	Y14	Z14	X15	Y15	Z15	X16	Y16	Z16	X17	Y17	Z17	X18	Y18	Z18	X19	Y19	Z19	X20	Y20	Z20	X21	Y21	Z21	X22	Y22	Z22	X23	Y23	Z23	X24	Y24	Z24	X25	Y25	Z25	X26	Y26	Z26	X27	Y27	Z27	X28	Y28	Z28	X29	Y29	Z29	X30	Y30	Z30	X31	Y31	Z31	X32	Y32	Z32	X33	Y33	Z33	X34	Y34	Z34	X35	Y35	Z35	X36	Y36	Z36	X37	Y37	Z37	X38	Y38	Z38	X39	Y39	Z39	X40	Y40	Z40	X41	Y41	Z41	

32	0.6	970.965742	1051.370795	-424.276424	980.029554	1010.218655	-196.246356	816.736814	1084.458592	-346.113398	820.500078	1079.266616	-249.911438	851.894839	869.655488	-132.492672	703.797692	661.76055	-190.223307	983.024592	890.66462	-480.400354	1086.669544	829.61873	-454.789066	1088.522278	699.776032	-425.942838	612.28053	440.798338	-254.087253	543.813484	417.27954	-191.863452	528.228322	345.107347	-254.279811	1178.780187	501.122299	-352.015353	1128.987538	434.223445	-428.801407	1136.289868	336.038301	-357.482869	361.072732	296.714878	-258.352103	461.23039	118.387088	-314.123328	421.736598	104.349338	-228.422547	1014.068532	200.861905	-367.875207	1218.600736	194.473217	-326.818809	1212.859998	174.192674	-416.511158	907.3883959999999	1503.496336	-482.094834	975.175557	1498.121819	-106.588179	997.888369	1484.999978	-284.572727	874.312683	1544.303356	-296.843287	938.805565	1367.961473	-42.277575	863.2461939999999	1363.748802	-39.364761	909.684453	1296.621457	-0.793264	884.501426	1227.70047	20.035591	834.588622	1205.637828	-44.111501	804.803779	1433.490455	-541.605889	729.2900509999999	1426.530535	-520.8604329999999	756.051059	1363.233384	-565.590188	676.490383	1325.6063	-584.769405	648.186583	1334.455895	-503.750088	987.127147	1211.271044	-51.760335	1050.921968	1199.627469	-155.299486	1065.417118	1142.066147	-117.192241	754.292453	1223.792553	-563.2416009999999	833.390967	1167.197692	-477.210292	808.931285	1127.196812	-527.163403	
33	0.608333	972.343794	1053.019325	-424.56696	981.187535	1013.04384	-196.61678	818.370544	1088.098418	-346.611036	822.549589	1083.665934	-249.887776	851.193139	875.24229	-131.437818	702.353604	667.333889	-189.274335	981.863472	889.868622	-478.76107	1085.109001	826.303926	-453.318188	1086.239544	696.75524	-426.871377	603.601544	448.871195	-254.240821	537.578482	426.297715	-189.963846	515.200037	357.188895	-252.870331	1183.036083	499.767719	-350.092999	1141.307421	427.893645	-427.156404	1155.717149	331.5829	-354.223848	346.189665	316.594065	-252.501127	437.068281	133.994661	-310.960112	398.53033	121.299473	-224.282091	1046.608529	185.037736	-365.029924	1249.6326	199.340574	-319.722489	1248.23286	176.096944	-408.514471	905.378304	1505.54142	-481.863187	976.210867	1500.796633	-107.26752	997.825926	1487.52135	-285.176328	873.7845160000001	1546.08234	-296.453973	940.421849	1371.3253	-42.559693	864.736853	1367.152821	-39.513425	911.392818	1300.422301	-0.2003	886.19742	1230.9155	20.233925	835.328747	1209.098966	-43.495895	802.341505	1436.244154	-540.973894	726.973677	1429.454522	-519.856229	753.13207	1366.388697	-565.311046	673.325047	1329.149059	-583.719566	645.624736	1337.588136	-502.400589	987.747237	1215.068234	-53.391826	1050.126674	1204.481871	-157.516784	1065.134044	1146.358081	-120.647166	752.113544	1228.085722	-563.379376	832.130319	1171.604328	-478.129458	807.9956979999999	1131.535338	-528.215896	
34	0.616667	973.430025	1053.491796	-424.791501	981.886917	1015.851129	-196.604889	819.542029	1090.771851	-347.272753	823.8951080000001	1087.388823	-249.988298	850.553986	880.6887850000001	-131.054727	703.6581629999999	670.2889280000001	-187.857454	980.477843	888.027108	-477.564774	1083.709323	822.579072	-452.168053	1083.697905	692.889674	-427.862491	596.663741	454.929268	-254.059957	532.118285	434.199571	-188.200245	502.962712	368.990652	-251.604662	1185.515752	497.500841	-348.374117	1151.711118	421.711178	-425.469084	1172.288286	327.592608	-351.010529	330.756829	337.237486	-247.62795	412.697543	151.093027	-308.303555	376.352845	140.189179	-220.064219	1076.465445	171.650679	-361.587048	1276.223179	205.603339	-313.170167	1279.122277	179.892741	-400.870666	903.95155	1506.879899	-481.932324	976.926481	1502.50671	-107.685855	997.947153	1489.403432	-285.725592	873.519097	1547.324363	-296.127876	941.434136	1373.595554	-42.807722	865.662987	1369.459543	-39.62732	912.426152	1303.037511	0.177128	887.205687	1233.140037	20.355062	835.63668	1211.631586	-43.066379	800.474778	1437.966906	-540.411659	725.221172	1431.167404	-519.010928	750.981407	1368.373938	-565.010588	671.032907	1331.457747	-582.820968	643.762535	1339.400404	-501.172369	987.802748	1217.227167	-54.668135	1048.935701	1207.154729	-159.369584	1064.115577	1148.490377	-123.340952	750.720358	1231.071033	-563.747606	831.723948	1174.553103	-479.269249	807.896787	1134.572566	-529.609151	
35	0.625	974.2626310000001	1053.089115	-424.869805	982.342407	1018.556368	-196.331331	820.280471	1092.314117	-348.062458	824.705558	1090.196705	-250.471997	850.126455	885.612498	-131.575818	707.441571	670.574068	-186.144916	979.151818	885.089419	-477.343991	1082.399923	818.275133	-452.057183	1080.156978	688.166308	-428.349403	591.823763	459.050937	-252.914966	526.81233	441.939741	-186.269567	492.214359	380.490873	-249.903663	1186.289746	494.392226	-346.697298	1159.850755	415.935926	-423.593855	1185.627526	323.949138	-348.006626	316.57394	359.080515	-243.468969	388.889577	169.437178	-305.475871	355.036491	160.682309	-215.753832	1102.594196	160.829133	-358.048841	1297.890851	212.377196	-307.213829	1304.841062	184.730358	-393.858774	903.138255	1507.616448	-482.308287	977.254097	1503.377592	-107.945732	998.233368	1490.704061	-286.329165	873.536647	1548.144775	-296.057131	941.827073	1374.77002	-43.098776	865.997897	1370.724096	-39.749926	912.754133	1304.467535	0.250394	887.46857	1234.447924	20.290115	835.496888	1213.314701	-42.958846	799.255656	1438.736784	-539.9250919999999	724.099462	1431.731176	-518.302695	749.612208	1369.297236	-564.682597	669.652291	1332.52586	-582.095916	642.722186	1339.912213	-500.090552	987.288918	1217.719325	-55.643292	1047.354678	1207.46543	-161.001793	1062.397113	1148.470333	-125.252741	750.1578019999999	1232.731318	-564.291101	832.211368	1176.001449	-480.592979	808.6282629999999	1136.278267	-531.276282	
